<?xml version="1.0" encoding="UTF-8"?><!DOCTYPE svg PUBLIC "-//W3C//DTD SVG 1.1//EN" "http://www.w3.org/Graphics/SVG/1.1/DTD/svg11.dtd"><svg xmlns="http://www.w3.org/2000/svg" xmlns:xlink="http://www.w3.org/1999/xlink" version="1.1" width="24" height="24" viewBox="0 0 24.00 24.00"><path d="M12 2C8.13341 2 5 5.13207 5 9C5 11.3761 6.18741 13.4731 8 14.7381L8 17C8 17.5501 8.44741 18 9 18L15 18C15.5514 18 16 17.5501 16 17L16 14.7381C17.8114 13.4731 19 11.3761 19 9C19 5.13207 15.8654 2 12 2ZM9 21C9 21.5501 9.44741 22 10 22L14 22C14.5514 22 15 21.5501 15 21L15 20L9 20L9 21Z" /></svg>