<?xml version="1.0" encoding="UTF-8"?><!DOCTYPE svg PUBLIC "-//W3C//DTD SVG 1.1//EN" "http://www.w3.org/Graphics/SVG/1.1/DTD/svg11.dtd"><svg xmlns="http://www.w3.org/2000/svg" xmlns:xlink="http://www.w3.org/1999/xlink" version="1.1" width="24" height="24" viewBox="0 0 24.00 24.00"><path d="M12 9C10.8954 9 10 8.10306 10 7C10 5.89307 10.8954 5 12 5C13.1054 5 14 5.89307 14 7C14 8.10306 13.1054 9 12 9ZM12 14C10.8954 14 10 13.1031 10 12C10 10.8931 10.8954 10 12 10C13.1054 10 14 10.8931 14 12C14 13.1031 13.1054 14 12 14ZM12 19C10.8954 19 10 18.1031 10 17C10 15.8931 10.8954 15 12 15C13.1054 15 14 15.8931 14 17C14 18.1031 13.1054 19 12 19ZM20 10L17 10L17 8.85607C18.7224 8.41106 20 6.86007 20 5L17 5L17 4C17 3.44607 16.5524 3 16 3L8 3C7.44739 3 7 3.44607 7 4L7 5L4 5C4 6.86007 5.2774 8.41106 7 8.85607L7 10L4 10C4 11.8601 5.2774 13.4111 7 13.8561L7 15L4 15C4 16.8601 5.2774 18.4111 7 18.8561L7 20C7 20.5501 7.44739 21 8 21L16 21C16.5524 21 17 20.5501 17 20L17 18.8561C18.7224 18.4111 20 16.8601 20 15L17 15L17 13.8561C18.7224 13.4111 20 11.8601 20 10Z" /></svg>