<?xml version="1.0" encoding="UTF-8"?><!DOCTYPE svg PUBLIC "-//W3C//DTD SVG 1.1//EN" "http://www.w3.org/Graphics/SVG/1.1/DTD/svg11.dtd"><svg xmlns="http://www.w3.org/2000/svg" xmlns:xlink="http://www.w3.org/1999/xlink" version="1.1" width="24" height="24" viewBox="0 0 24.00 24.00"><path d="M20 14L4 14L4 8L7 8L7 10L9 10L9 8L15 8L15 10L17 10L17 8L20 8M20 19L4 19L4 17L20 17M9 4L15 4L15 6L9 6M20 6L17 6L17 4C17 2.89 16.11 2 15 2L9 2C7.89 2 7 2.89 7 4L7 6L4 6C2.89 6 2 6.89 2 8L2 19C2 20.11 2.89 21 4 21L20 21C21.11 21 22 20.11 22 19L22 8C22 6.89 21.11 6 20 6Z" /></svg>