<?xml version="1.0" encoding="UTF-8"?><!DOCTYPE svg PUBLIC "-//W3C//DTD SVG 1.1//EN" "http://www.w3.org/Graphics/SVG/1.1/DTD/svg11.dtd"><svg xmlns="http://www.w3.org/2000/svg" xmlns:xlink="http://www.w3.org/1999/xlink" version="1.1" width="24" height="24" viewBox="0 0 24.00 24.00"><path d="M3.54769 18.5352L4.9617 19.9502L6.75669 18.1552L5.34271 16.7412M11 22.4482C11.3157 22.4502 13 22.4482 13 22.4482L13 19.5L11 19.5M12 5.5C8.68569 5.5 6 8.18416 6 11.5C6 14.8112 8.68569 17.5 12 17.5C15.3127 17.5 18 14.8112 18 11.5C18 8.18416 15.3127 5.5 12 5.5ZM20 12.5L23 12.5L23 10.5L20 10.5M17.2417 18.1552L19.0367 19.9502L20.4507 18.5352L18.6557 16.7412M20.4507 4.46117L19.0367 3.04616L17.2417 4.84116L18.6557 6.25516M13 0.548162L11 0.548162L11 3.5L13 3.5M4 10.5L1 10.5L1 12.5L4 12.5M6.75669 4.84116L4.9617 3.04616L3.54769 4.46117L5.34271 6.25516L6.75669 4.84116Z" /></svg>