<?xml version="1.0" encoding="UTF-8"?><!DOCTYPE svg PUBLIC "-//W3C//DTD SVG 1.1//EN" "http://www.w3.org/Graphics/SVG/1.1/DTD/svg11.dtd"><svg xmlns="http://www.w3.org/2000/svg" xmlns:xlink="http://www.w3.org/1999/xlink" version="1.1" width="24" height="24" viewBox="0 0 24.00 24.00"><path d="M20 18L4 18L4 6L20 6M20 4L4 4C2.8934 4 2 4.89307 2 6L2 18C2 19.1031 2.8934 20 4 20L20 20C21.1044 20 22 19.1031 22 18L22 6C22 4.89307 21.1044 4 20 4ZM11 17L13 17L13 16L14 16C14.5514 16 15 15.5501 15 15L15 12C15 11.4461 14.5514 11 14 11L11 11L11 10L15 10L15 8L13 8L13 7L11 7L11 8L10 8C9.4474 8 9 8.44606 9 9L9 12C9 12.5501 9.4474 13 10 13L13 13L13 14L9 14L9 16L11 16L11 17Z" /></svg>